<svg xmlns="http://www.w3.org/2000/svg" viewBox="0 0 903.9856 917.8935">
  <g id="Person">
    <g>
      <line x1="659.4281" y1="572.9536" x2="224.1095" y2="575.2034" style="fill: none;stroke: #000;stroke-linecap: round;stroke-linejoin: round;stroke-width: 4px"/>
      <polyline points="807.405 897.067 806.652 572.067 677.382 572.954" style="fill: none;stroke: #000;stroke-linecap: round;stroke-linejoin: round;stroke-width: 4px"/>
      <polyline points="221.089 844.534 220.405 897.222 759.133 897.078" style="fill: none;stroke: #000;stroke-linecap: round;stroke-linejoin: round;stroke-width: 4px"/>
      <path d="M363.9358,421.4692c-8.5234-39.7319-10.1385-61.2277-17.4426-105.7966,25.3875-3.24,51.8679-5.3418,77.4561-5.0159,3.4581,32.0655,5.5675,48.8063,10.1874,74.2436,43.8919-35.2184,77.5633-91.2854,141.523-87.2357" transform="translate(-27.3071 -43.0499)" style="fill: none;stroke: #000;stroke-linecap: round;stroke-linejoin: round;stroke-width: 4px"/>
      <path d="M192.1417,652.2891l-84.4579-99.0362a3.9137,3.9137,0,0,1,.68-5.7076L270.9116,429.6492s46.0754-46.47,97.2561-10.27l251.01,152.5683a1.6577,1.6577,0,0,1,.6081,2.1975c-4.0456,7.5615-26.5864,43.64-94.0268,56.37L318.61,597.8866l1.4125,209.8153a4.871,4.871,0,0,1-5.3344,4.8817L185.3543,800.22a5.3178,5.3178,0,0,1-4.7528-6.0824L203.543,641.1944Z" transform="translate(-27.3071 -43.0499)" style="fill: #069"/>
      <path d="M622.7451,230.103l-1.4972-32.5238a5.1281,5.1281,0,0,0-4.7689-4.9363c-13.5243-.94-53.5393-4.0759-74.9129-9.5383a16.7741,16.7741,0,0,1-12.0768-20.795c1.6867-5.7953,5.8717-11.9259,15.1606-16.2,0,0,43.5511-20.0067,78.5273,8.8547,0,0,12.0733,9.3041,12.1417,23.8946a5.0828,5.0828,0,0,0,3.6767,4.828c6.049,1.7544,17.82,10.9888,21.4985,18.92,0,0,12.9713,17.975,3.5779,36.1918-.05.0977-.0963.1938-.1384.2953-.8046,1.9387-10.3377,24.1349-30.9594,38.8554a5.14,5.14,0,0,1-8.1319-4.1717V263.0722a5.1352,5.1352,0,0,1,3.9683-5.0009l2.0445-.477a5.0921,5.0921,0,0,0,1.9238-.8988c3.4651-2.6233,14.5875-12.6653,1.3009-25.2137a5.1128,5.1128,0,0,0-3.5077-1.3788Z" transform="translate(-27.3071 -43.0499)" style="fill: #069"/>
      <path d="M358.8091,313.2677" transform="translate(-27.3071 -43.0499)" style="fill: none;stroke: #000;stroke-linecap: round;stroke-linejoin: round;stroke-width: 4px"/>
      <path d="M621.2831,232.7528c3.4727-4.3858,10.84-4.1963,14.9309-.3807s5.1006,10.146,3.65,15.5489a13.7738,13.7738,0,0,1-4.7189,7.5871c-3.1744,2.3709-7.3908,2.6705-11.3495,2.8311q-.1487,18.7155-1.6981,37.3848a11.2292,11.2292,0,0,1-.7835,3.8383c-.91,1.96-2.8464,3.2273-4.7844,4.1828a30.1568,30.1568,0,0,1-26.716-.09,3.433,3.433,0,0,1-1.8181-3.2986c.4207-5.9485.999-10.3213,1.3774-16.6929.0359-.6041-.061-2.6787.5277-2.819" transform="translate(-27.3071 -43.0499)" style="fill: none;stroke: #000;stroke-linecap: round;stroke-linejoin: round;stroke-width: 4px"/>
      <path d="M537.3266,188.8159c-.4786,11.7817-.9952,21.5694-6.2667,31.5061a68.589,68.589,0,0,0-3.4584,6.5844,11.9877,11.9877,0,0,0-.7234,7.5516c.9972,3.4968,4.0138,5.4376,6.06,8.1918,5.9336,7.987,3.0337,21.5618,8.4765,30.0416a16.5682,16.5682,0,0,0,9.1013,6.7144,38.463,38.463,0,0,0,10.78,1.3446,332.9654,332.9654,0,0,0,37.2492-1.2019" transform="translate(-27.3071 -43.0499)" style="fill: none;stroke: #000;stroke-linecap: round;stroke-linejoin: round;stroke-width: 4px"/>
      <path d="M620.9833,300.1646c36.923,8.0947,50.6265,18.1853,68.8621,42.2664s27.2675,53.6945,35.9591,82.6236c14.2871,47.5529,17.5743,82.1059,31.8614,129.6588-36.82,4.6926-51.9427,7.4309-83.852,11.4976-3.1328-22.8033-3.7745-26.8725-6.9074-49.6758-3.8891-28.3081-7.15-79.583-14.76-118.2235,12.14,58.4,10.582,109.764-27.0654,163.8993" transform="translate(-27.3071 -43.0499)" style="fill: none;stroke: #000;stroke-linecap: round;stroke-linejoin: round;stroke-width: 4px"/>
      <path d="M465.0765,452.3087c27.5854-25.2849,43.5109-38.8471,70.6867-80.214" transform="translate(-27.3071 -43.0499)" style="fill: none;stroke: #000;stroke-linecap: round;stroke-linejoin: round;stroke-width: 4px"/>
      <path d="M191.0765,655.1769c50.7279-51.7485,98.4212-87.7182,152.4167-136.0475" transform="translate(-27.3071 -43.0499)" style="fill: none;stroke: #000;stroke-linecap: round;stroke-linejoin: round;stroke-width: 4px"/>
      <path d="M531.7632,629.2927C501.97,631.8215,474.34,618.9268,447.93,604.9063c-10.0847-5.354-30.7066-22.9508-43.994-34.0637-24.36-20.374-37.2366-33.9486-73.878-64.5937" transform="translate(-27.3071 -43.0499)" style="fill: none;stroke: #000;stroke-linecap: round;stroke-linejoin: round;stroke-width: 4px"/>
      <path d="M382.3519,607.927c-21.4822-3.7127-48.2-8.8854-71.1466-12.8512" transform="translate(-27.3071 -43.0499)" style="fill: none;stroke: #000;stroke-linecap: round;stroke-linejoin: round;stroke-width: 4px"/>
      <path d="M121.6875,588.1777c-7.8489,5.6836-10.8841,8.2082-19.4673,13.9449a1.91,1.91,0,0,1-2.3049-.1279c-12.23-10.4306-64.1607-54.3273-70.4479-33.7175C25.8272,590.1129,85.2,647,104.4815,666.6187a2.6026,2.6026,0,0,0,3.5085.1789c17.0767-14.0223,30.6831-24.5744,48.0177-38.8546" transform="translate(-27.3071 -43.0499)" style="fill: none;stroke: #000;stroke-linecap: round;stroke-linejoin: round;stroke-width: 4px"/>
      <path d="M221.9488,816.097l-3.2278,26.1175a1.75,1.75,0,0,1-1.6508,1.5321,166.6646,166.6646,0,0,0-75.8032,22.908,9.5725,9.5725,0,0,0-4.6127,10.1964c1.3059,5.8315,7.4994,6.5505,12.6408,6.6838l117.6055,3.0483a2.9272,2.9272,0,0,0,2.9977-2.91c.1717-19.1411,1.9645-37.5885,4.1413-62.1622" transform="translate(-27.3071 -43.0499)" style="fill: none;stroke: #000;stroke-linecap: round;stroke-linejoin: round;stroke-width: 4px"/>
      <path d="M568.8624,210.6372a13.1664,13.1664,0,0,1,5.7359,4.94" transform="translate(-27.3071 -43.0499)" style="fill: none;stroke: #000;stroke-linecap: round;stroke-linejoin: round;stroke-width: 4px"/>
      <g>
        <path d="M786.09,614.5577c4.33-5.1319-1.1241-10.0107-7.1815-11.641-.6868-.1848-1.387-.3259-2.0779-.4865a65.55,65.55,0,0,1-19.2235-7.8526" transform="translate(-27.3071 -43.0499)" style="fill: none;stroke: #000;stroke-linecap: round;stroke-linejoin: round;stroke-width: 4px"/>
        <path d="M746.4969,566.211c6.0072,10.5031,20.56,25.21,32.7564,29.6027,10.67,4.2707,24.1,5.2287,22.2407,18.244" transform="translate(-27.3071 -43.0499)" style="fill: none;stroke: #000;stroke-linecap: round;stroke-linejoin: round;stroke-width: 4px"/>
        <path d="M689.0467,574.4963c6.5259,15.5595.9341,27.9917-1.8945,39.245a9.6717,9.6717,0,0,0,1.1251,7.6329c5.8964,9.0529,19.0525-8.1488,21.1139-15.9562,4.85,10.8633,12.4885,10.3349,25.8366,10.3349,13.0081.1016,20.0421.6974,25.3664-2.369,3.9592-2.28,2.8677-8.29-1.5773-9.3461-6.8027-1.6162-18.2784-1.9475-25.7517-9.7744" transform="translate(-27.3071 -43.0499)" style="fill: none;stroke: #000;stroke-linecap: round;stroke-linejoin: round;stroke-width: 4px"/>
      </g>
      <ellipse cx="565.4309" cy="222.3049" rx="2.8852" ry="4.1677" transform="translate(-27.6837 -42.0898) rotate(-0.0973)"/>
      <ellipse cx="551.7626" cy="221.3262" rx="2.8852" ry="4.1677" transform="translate(-27.6821 -42.113) rotate(-0.0973)"/>
      <path d="M549.8452,205.2064l6.61.7857" transform="translate(-27.3071 -43.0499)" style="fill: none;stroke: #000;stroke-linecap: round;stroke-linejoin: round;stroke-width: 4px"/>
      <path d="M700.4294,73.7055c-1.6473-39.932,73.0178-37.0061,70.6218,1.78-3.3846,39.0343-42.1889,34.1924-37.2016,86.0148" transform="translate(-27.3071 -43.0499)" style="fill: none;stroke: #000;stroke-linecap: round;stroke-linejoin: round;stroke-width: 4px"/>
      <path d="M553.15,255.8315c4.8494,0,8.88.0159,13.3769,1.4245" transform="translate(-27.3071 -43.0499)" style="fill: none;stroke: #000;stroke-linecap: round;stroke-linejoin: round;stroke-width: 4px"/>
      <path d="M673.4857,115.1837c1.3978-12.2877,20.1572-10.1265,23.7209-.2908,5.88,16.4813-14.3565,16.9466-13.0427,37.0917" transform="translate(-27.3071 -43.0499)" style="fill: none;stroke: #000;stroke-linecap: round;stroke-linejoin: round;stroke-width: 4px"/>
      <circle cx="707.2554" cy="129.9864" r="3.5342"/>
      <circle cx="657.1609" cy="118.3031" r="3.0179"/>
      <path d="M432.2424,284.2877l-6.5587-79.2162a8.4137,8.4137,0,0,0-9.0794-7.6906l-39.2017,3.247a8.4143,8.4143,0,0,0-7.6909,9.08l2.2926,27.6889,12.6139-3.0876,11.9933,2.47,11.5183,4.5666,3.1528,6.1656-4.4087,4.7862,8.3181,6.4229-1.4334,6.0783-7.449,2.2872,6.7594,6.7343-.3294,4.9346-7.5066,1.2921,6.7629,6.2462-3.8151,6.6129L394.95,290.7l-.2287.1271,1.04.0671.7594,4.7955,28.031-2.3218A8.4141,8.4141,0,0,0,432.2424,284.2877Z" transform="translate(-27.3071 -43.0499)" style="fill: #e5e5e5"/>
      <path d="M371.8946,236.0716l-2.1828-26.3639a8.4141,8.4141,0,0,1,7.6909-9.08l39.2015-3.247a8.4135,8.4135,0,0,1,9.0794,7.6906l6.5588,79.2163a8.4141,8.4141,0,0,1-7.6909,9.08l-26.5147,2.1962" transform="translate(-27.3071 -43.0499)" style="fill: none;stroke: #000;stroke-linecap: round;stroke-linejoin: round;stroke-width: 4px"/>
      <path d="M360.251,313.314c2.1963-12.6543-2.7568-22.0646-7.4-31.63-4.9752-10.2494-8.4183-17.2872-8.9639-28.6673-.7714-16.0886,7.5293-28.8589,26.1753-35.0893" transform="translate(-27.3071 -43.0499)" style="fill: none;stroke: #000;stroke-linecap: round;stroke-linejoin: round;stroke-width: 4px"/>
      <path d="M364.53,241.39c28.5923-21.518,78.0538,17.8529,19.1572,9.7972" transform="translate(-27.3071 -43.0499)" style="fill: none;stroke: #000;stroke-linecap: round;stroke-linejoin: round;stroke-width: 4px"/>
      <path d="M398.7433,252.3463c3.5711.02,7.84-.2257,11.11,1.21a9.6163,9.6163,0,0,1,4.75,5.4237,5.3292,5.3292,0,0,1-3.6137,7.007,2.2459,2.2459,0,0,1-.39.2707c-9.7526,1.5275-17.2664-1.8963-25.9874-2.2108" transform="translate(-27.3071 -43.0499)" style="fill: none;stroke: #000;stroke-linecap: round;stroke-linejoin: round;stroke-width: 4px"/>
      <path d="M404.8545,266.776c3.0521,1.27,7.2062,4.4722,8.0979,7.89a4.2323,4.2323,0,0,1-3.933,5.1478c-9.2832.6184-18.6627-4.7255-28.0232-2.5762" transform="translate(-27.3071 -43.0499)" style="fill: none;stroke: #000;stroke-linecap: round;stroke-linejoin: round;stroke-width: 4px"/>
      <path d="M402.9177,279.46c4.8081,1.5756,10.8047,4.7053,9.8019,9.2982a5.471,5.471,0,0,1-3.564,3.847c-5.5929,2.0427-12.0663-1.1643-17.44-3.1515,5.7346,5.78,13.2653,12.112,13.6934,20.6961" transform="translate(-27.3071 -43.0499)" style="fill: none;stroke: #000;stroke-linecap: round;stroke-linejoin: round;stroke-width: 4px"/>
    </g>
  </g>
  <g id="Pflanze">
    <g>
      <path d="M877.2352,637.495c1.912-9.4274,9.4561-16.2369,16.091-22.9187,10.0443-10.1153,19.16-22.0319,22.4863-36.2s-.42-30.9154-11.8668-39.24c-3.696-2.688-8.22-4.4252-12.6828-3.8148-5.0607.6921-9.3424,4.2536-12.7856,8.1969a57.9506,57.9506,0,0,0-13.951,38.5018C864.8088,601.1663,874.385,618.8927,877.2352,637.495Z" transform="translate(-27.3071 -43.0499)" style="fill: #fff"/>
      <path d="M877.2352,637.495c1.912-9.4274,9.4561-16.2369,16.091-22.9187,10.0443-10.1153,19.16-22.0319,22.4863-36.2s-.42-30.9154-11.8668-39.24c-3.696-2.688-8.22-4.4252-12.6828-3.8148-5.0607.6921-9.3424,4.2536-12.7856,8.1969a57.9506,57.9506,0,0,0-13.951,38.5018C864.8088,601.1663,874.385,618.8927,877.2352,637.495Z" transform="translate(-27.3071 -43.0499)" style="fill: #069;opacity: 0.470588235294118"/>
      <path d="M873.0072,687.0363c-1.3689-15.33-4.2929-28.2737-11.3166-41.8015-5.51-10.6123-13.7171-21.0239-25.0732-23.1652a16.3246,16.3246,0,0,0-11.3738,1.6368c-4.69,2.7975-7.312,8.4382-7.99,14.0432s.307,11.2682,1.2887,16.8238l7.0073,39.6547c4.0576,22.9617,8.2236,46.2706,18.1843,67.1649a4.5024,4.5024,0,0,0,1.26,1.7963c1.9214,1.39,4.3-.98,5.37-3.1535,7.98-16.2066,6.5559-22.7952,14.1571-41.9262,1.458-3.67,2.7526-11.8519,4.6025-15.3645S873.1546,688.6867,873.0072,687.0363Z" transform="translate(-27.3071 -43.0499)" style="fill: #fff"/>
      <path d="M873.0077,687.0366c-1.3689-15.33-4.2929-28.2737-11.3165-41.8015-5.51-10.6123-13.7172-21.0239-25.0733-23.1652a16.3246,16.3246,0,0,0-11.3738,1.6368c-4.6895,2.7975-7.312,8.4382-7.99,14.0432s.307,11.2682,1.2887,16.8238l7.0074,39.6547c4.0575,22.9617,8.2235,46.2706,18.1842,67.165.32.6721,4.6694,8.3691,5.26,8.7962,1.9214,1.39.3-7.98,1.37-10.1535,7.98-16.2066,6.5559-22.7952,14.1571-41.9262,1.4581-3.67,2.7526-11.8519,4.6025-15.3645S873.1551,688.687,873.0077,687.0366Z" transform="translate(-27.3071 -43.0499)" style="fill: #069;opacity: 0.56078431372549"/>
      <path d="M862.2563,727.2374c8.8205,1.6595,17.6191-4.3142,22.6109-12.1049s7.056-17.1632,9.4778-26.1949c2.28-8.5022,4.9743-17.0076,5.3223-25.8309.1121-2.8419-.2992-6.2007-2.6688-7.5928a5.2823,5.2823,0,0,0-5.7563.7627,15.9707,15.9707,0,0,0-3.791,4.9917A245.2774,245.2774,0,0,0,862.2563,727.2374Z" transform="translate(-27.3071 -43.0499)" style="fill: #fff"/>
      <path d="M862.2563,727.2374c8.8205,1.6595,17.6191-4.3142,22.6109-12.1049s7.056-17.1632,9.4778-26.1949c2.28-8.5022,4.9743-17.0076,5.3223-25.8309.1121-2.8419-.2992-6.2007-2.6688-7.5928a5.2823,5.2823,0,0,0-5.7563.7627,15.9707,15.9707,0,0,0-3.791,4.9917A245.2774,245.2774,0,0,0,862.2563,727.2374Z" transform="translate(-27.3071 -43.0499)" style="fill: #069;opacity: 0.36078431372549"/>
      <path d="M859.449,527.3708c.2729-7.0841.518-14.3723-1.7527-21.0518s-7.6871-12.6924-14.4373-13.2761a8.7546,8.7546,0,0,0-5.5247,1.18c-3.592,2.3245-4.3341,7.4214-4.2719,11.8413a66.8632,66.8632,0,0,0,9.4186,33.2681c6.749,11.2312,17.1044,21.0107,18.6546,34.1793C857.34,558.1073,858.8844,542.0272,859.449,527.3708Z" transform="translate(-27.3071 -43.0499)" style="fill: #fff"/>
      <path d="M859.449,527.3708c.2729-7.0841.518-14.3723-1.7527-21.0518s-7.6871-12.6924-14.4373-13.2761a8.7546,8.7546,0,0,0-5.5247,1.18c-3.592,2.3245-4.3341,7.4214-4.2719,11.8413a66.8632,66.8632,0,0,0,9.4186,33.2681c6.749,11.2312,17.1044,21.0107,18.6546,34.1793C857.34,558.1073,858.8844,542.0272,859.449,527.3708Z" transform="translate(-27.3071 -43.0499)" style="fill: #069;opacity: 0.301960784313726"/>
      <path d="M927.777,793.3577l-144.37-2.3425c-2.2028-.0369-3.9421,2.12-3.7227,4.6165L799.4485,954.61a3.9066,3.9066,0,0,0,3.6649,3.78l101.9791.11a3.9046,3.9046,0,0,0,3.6715-3.7751L927.6384,797.98C927.8565,795.53,929.9384,793.3939,927.777,793.3577Z" transform="translate(-27.3071 -43.0499)" style="fill: #fff"/>
      <path d="M927.777,793.3577l-144.37-2.3425c-2.2028-.0369-3.9421,2.12-3.7227,4.6165L799.4485,954.61a3.9066,3.9066,0,0,0,3.6649,3.78l101.9791.11a3.9046,3.9046,0,0,0,3.6715-3.7751L927.6384,797.98C927.8565,795.53,929.9384,793.3939,927.777,793.3577Z" transform="translate(-27.3071 -43.0499)" style="fill: #069;opacity: 0.388235294117647"/>
      <path d="M846.4149,794.9656a2.1269,2.1269,0,0,0,2.12-2.02c1.1013-22.747,8.3055-45.0633,15.2695-66.651,7.9081-24.4859,16.0811-49.8,15.4931-76.0329-.414-18.4576-5.1671-36.8075-9.7546-54.553C863.0259,570.5433,856.865,546.77,861.9,522.54a2.1265,2.1265,0,0,0-1.6479-2.5049,2.09,2.09,0,0,0-2.509,1.6437c-5.2251,25.198,1.3415,50.5617,7.6927,75.0972,4.5295,17.5053,9.2247,35.6151,9.6221,53.5841.5714,25.5127-7.494,50.4789-15.286,74.6336-7.0552,21.8443-14.3421,44.4422-15.4766,67.7522a2.1206,2.1206,0,0,0,2.0205,2.2193Z" transform="translate(-27.3071 -43.0499)"/>
      <path d="M906.4311,796.1911a2.1395,2.1395,0,0,0,.0218-4.24l-117.129-1.7555c-1.1125-.2567-1.8687.9192-1.8832,2.095a2.01,2.01,0,0,0,1.84,2.1447l117.129,1.7555Z" transform="translate(-27.3071 -43.0499)"/>
      <path d="M834.3752,960.9434l33.8539-.0414a2.1378,2.1378,0,0,0,0-4.24h0l-33.8321.0414-42.63-.53L771.7134,793.3094a1.9618,1.9618,0,0,0-2.05-1.888,2.0828,2.0828,0,0,0-1.6578,2.3352l20.228,164.744a1.9744,1.9744,0,0,0,1.8323,1.8963Z" transform="translate(-27.3071 -43.0499)"/>
      <path d="M864.8844,960.9434h.0218l44.3169-.5465a1.9743,1.9743,0,0,0,1.8323-1.8963l20.228-164.744a2.0828,2.0828,0,0,0-1.6578-2.3352,1.9788,1.9788,0,0,0-2.05,1.888L907.5217,956.1737l-42.6591.53a2.1395,2.1395,0,0,0,.0218,4.24Z" transform="translate(-27.3071 -43.0499)"/>
    </g>
  </g>
</svg>
